Coordinates
version=1
nRows=17
nColumns=40
inDegrees=yes

Units are S.I. units (second, meters, Newtons, ...)
Angles are in degrees.

endheader
time	pelvis_tilt	pelvis_list	pelvis_rotation	pelvis_tx	pelvis_ty	pelvis_tz	hip_flexion_r	hip_adduction_r	hip_rotation_r	knee_angle_r	knee_angle_r_beta	ankle_angle_r	subtalar_angle_r	mtp_angle_r	hip_flexion_l	hip_adduction_l	hip_rotation_l	knee_angle_l	knee_angle_l_beta	ankle_angle_l	subtalar_angle_l	mtp_angle_l	lumbar_extension	lumbar_bending	lumbar_rotation	arm_flex_r	arm_add_r	arm_rot_r	elbow_flex_r	pro_sup_r	wrist_flex_r	wrist_dev_r	arm_flex_l	arm_add_l	arm_rot_l	elbow_flex_l	pro_sup_l	wrist_flex_l	wrist_dev_l
     45.35300000	     -6.19174573	     -5.93537857	      5.23010011	      0.95479912	      0.92002063	      0.47802898	      3.62795421	      4.66847035	    -14.81752533	     12.17860563	     12.17860563	     16.61442459	      1.24266354	     -3.21143884	     31.30353527	     -5.26127341	      1.51589885	     22.73860722	     22.73860722	      4.89541149	     -9.23167268	      5.36517926	     -8.49733022	      4.67316492	      3.03733301	     38.46429851	    -13.86430618	     -5.51351783	     79.60977087	     44.83306376	      0.00000000	      0.00000000	    -10.69308371	     -5.79439009	     -2.38872239	     25.16458473	     45.39287790	      0.00000000	      0.00000000
     45.36600000	     -6.21846692	     -5.95445566	      5.07664103	      0.95624678	      0.91943439	      0.47641522	      3.11459111	      4.59786077	    -14.64335537	     12.22705059	     12.22705059	     16.81694209	      1.36597853	     -3.23012626	     30.78831830	     -5.24572685	      1.53553583	     23.11498705	     23.11498705	      4.83336105	     -9.34166094	      5.26212789	     -8.18453371	      4.58780822	      2.93320815	     37.98076209	    -13.64706662	     -5.47825111	     79.69453918	     44.82789119	      0.00000000	      0.00000000	    -10.67336403	     -5.89297664	     -2.38822417	     25.15787435	     45.39399206	      0.00000000	      0.00000000
     45.37900000	     -6.17179268	     -5.92987950	      4.98268827	      0.95759219	      0.91921970	      0.47460495	      2.54610912	      4.45740490	    -14.54312156	     12.29939781	     12.29939781	     16.95969313	      1.49407423	     -3.17919047	     30.28164852	     -5.15696350	      1.59919877	     23.53462209	     23.53462209	      4.94044206	     -9.51515378	      5.02302055	     -8.04439501	      4.41302533	      2.74837369	     37.18577540	    -13.29927394	     -5.43752480	     79.83613310	     44.81981923	      0.00000000	      0.00000000	    -10.53453163	     -6.02139162	     -2.37955325	     25.17163865	     45.39629682	      0.00000000	      0.00000000
     45.39200000	     -6.11573041	     -5.86397770	      4.94842220	      0.95876584	      0.91938963	      0.47243426	      2.06642294	      4.16482769	    -14.92246663	     12.59935559	     12.59935559	     17.44504910	      2.32828629	     -2.13111807	     29.64146387	     -4.94931252	      1.78575221	     23.57683493	     23.57683493	      4.51520387	    -10.05085208	      3.56890319	     -8.06002996	      4.31178947	      3.02878883	     35.54903971	    -13.17563931	     -6.70068080	     82.48390762	     44.78884437	      0.00000000	      0.00000000	     -9.92347722	     -6.18085250	     -2.13827169	     24.98383395	     45.38147396	      0.00000000	      0.00000000
     45.40500000	     -6.10649579	     -5.80563249	      4.93586592	      0.95964039	      0.91975746	      0.47013468	      1.72553712	      3.91276408	    -14.82917824	     12.94534672	     12.94534672	     17.43058968	      2.23780195	     -2.06835338	     29.20140191	     -4.75602449	      1.87527414	     23.82032273	     23.82032273	      4.83748251	    -10.21331312	      3.33823890	     -7.94053943	      4.22610195	      2.86957464	     34.69058078	    -13.07628433	     -6.66055214	     82.23166186	     44.79436221	      0.00000000	      0.00000000	     -9.43262778	     -6.31507048	     -2.10363891	     25.08377952	     45.38609555	      0.00000000	      0.00000000
     45.41800000	     -6.17726888	     -5.63813685	      4.88521096	      0.96016690	      0.92027884	      0.46762402	      1.80369958	      3.42042890	    -14.73522208	     13.91621280	     13.91621280	     17.56942284	      2.02679721	     -1.89394087	     28.77163526	     -4.41465407	      1.97747544	     23.87122298	     23.87122298	      5.09059403	    -10.60625600	      3.08436081	     -7.79113742	      4.02873071	      3.00259992	     33.61922100	    -13.25546414	     -6.91354667	     82.03880427	     44.81364044	      0.00000000	      0.00000000	     -8.59997640	     -6.46526293	     -1.92813055	     25.01029429	     45.37840847	      0.00000000	      0.00000000
     45.43100000	     -6.11134146	     -5.63174557	      4.92602005	      0.96067974	      0.92123902	      0.46497249	      1.54957918	      3.16810221	    -14.75117772	     14.45992997	     14.45992997	     17.37664039	      1.91379229	     -1.85272937	     28.27922864	     -4.24332823	      2.11309653	     24.00412415	     24.00412415	      5.54421021	    -10.75185276	      2.89717609	     -7.82328538	      4.09187399	      2.69739619	     32.59943348	    -13.03329806	     -6.83382074	     81.76046681	     44.81749516	      0.00000000	      0.00000000	     -7.91292662	     -6.57118044	     -1.88599494	     25.18020996	     45.38489591	      0.00000000	      0.00000000
     45.44400000	     -6.16682401	     -5.40868401	      4.83935097	      0.96084157	      0.92212745	      0.46221217	      1.92152620	      2.50490029	    -14.68498836	     15.96768161	     15.96768161	     17.38629630	      1.59344237	     -2.00520447	     27.78352470	     -3.86492128	      2.05716862	     23.92346349	     23.92346349	      5.93982018	    -11.03234132	      2.85346977	     -7.77401077	      3.88628262	      2.84157432	     31.39697384	    -13.26821310	     -6.99549806	     81.23310863	     44.84134998	      0.00000000	      0.00000000	     -6.95112436	     -6.73610220	     -1.76082610	     25.29947964	     45.38535246	      0.00000000	      0.00000000
     45.45700000	     -6.07777157	     -5.53027995	      4.86900646	      0.96108000	      0.92339144	      0.45949551	      1.84310620	      2.34006719	    -14.72195581	     16.79913967	     16.79913967	     17.01551992	      1.45247512	     -2.03753115	     27.22279181	     -3.83631193	      2.17509603	     23.91201586	     23.91201586	      6.41131748	    -11.11352762	      2.72827087	     -7.88856994	      4.11996999	      2.49899944	     30.24970540	    -13.05234756	     -6.88844336	     80.80363869	     44.84831359	      0.00000000	      0.00000000	     -6.08867649	     -6.81185973	     -1.71957516	     25.57387449	     45.39443515	      0.00000000	      0.00000000
     45.47000000	     -6.16620914	     -5.24180373	      4.67421186	      0.96091926	      0.92425350	      0.45671596	      2.70200675	      1.47924647	    -14.54826321	     19.11447431	     19.11447431	     16.93036170	      0.84044294	     -2.62825326	     26.68471886	     -3.45831127	      1.86776154	     23.70654356	     23.70654356	      6.80940593	    -11.13208121	      2.74971676	     -7.79711333	      3.87477395	      2.89905294	     28.87827655	    -13.49602691	     -6.99807885	     79.72585476	     44.88711355	      0.00000000	      0.00000000	     -4.96135212	     -7.00307125	     -1.61704901	     25.92714425	     45.39974419	      0.00000000	      0.00000000
     45.48300000	     -6.21380063	     -5.19389440	      4.52537847	      0.96073085	      0.92519926	      0.45408501	      3.43553469	      0.93960338	    -14.40914132	     21.17075107	     21.17075107	     16.52903833	      0.27051389	     -3.25854856	     26.16212871	     -3.32855063	      1.66023242	     23.55153336	     23.55153336	      7.24664550	    -11.05682731	      2.74066751	     -7.77476711	      3.90209760	      3.05642417	     27.50481200	    -13.67470710	     -7.01665976	     78.63225235	     44.92303564	      0.00000000	      0.00000000	     -3.85290471	     -7.14617303	     -1.48782597	     26.32851244	     45.39972616	      0.00000000	      0.00000000
     45.49600000	     -6.21803894	     -5.15358023	      4.33261842	      0.96047785	      0.92609632	      0.45159855	      4.29609890	      0.39415245	    -14.18309990	     23.51092192	     23.51092192	     15.97493280	     -0.46070828	     -4.07349341	     25.57336707	     -3.26094842	      1.31850008	     23.36982283	     23.36982283	      7.67189766	    -10.82135434	      2.68398333	     -7.78172119	      3.93482423	      3.19839063	     26.14303174	    -13.81137626	     -6.95663652	     77.36851242	     44.96140915	      0.00000000	      0.00000000	     -2.75566967	     -7.31630704	     -1.37233224	     26.84596831	     45.40094040	      0.00000000	      0.00000000
     45.50900000	     -6.29833292	     -5.15788956	      4.07269348	      0.96008147	      0.92676249	      0.44930535	      5.44821813	     -0.11417138	    -13.82613322	     26.15514035	     26.15514035	     15.10186534	     -1.51608050	     -5.35406895	     25.08417775	     -3.27875184	      0.88059718	     23.21624600	     23.21624600	      8.13286325	    -10.43502061	      2.57015553	     -7.70262859	      4.00178279	      3.38893375	     24.76035821	    -13.95621459	     -6.84418422	     75.63743375	     45.01499510	      0.00000000	      0.00000000	     -1.66674089	     -7.51936340	     -1.18843606	     27.54085625	     45.39130735	      0.00000000	      0.00000000
     45.52200000	     -6.24704626	     -5.08320448	      3.78845880	      0.95961674	      0.92745373	      0.44711127	      6.67021690	     -0.72998303	    -13.42909899	     29.16537308	     29.16537308	     14.17688037	     -2.61322602	     -6.44744765	     24.43031746	     -3.24518129	      0.35257398	     23.04308602	     23.04308602	      8.55924601	    -10.01340635	      2.38938829	     -7.82809613	      3.99767922	      3.46736802	     23.42142890	    -13.99041258	     -6.62691355	     74.08011782	     45.05700099	      0.00000000	      0.00000000	     -0.57244308	     -7.77103506	     -1.09618392	     28.27580606	     45.39559939	      0.00000000	      0.00000000
     45.53500000	     -6.27578924	     -5.12963224	      3.49491485	      0.95899904	      0.92785048	      0.44517155	      7.95748877	     -1.07836778	    -12.80020119	     31.81188799	     31.81188799	     11.25679346	     -5.17522891	    -12.25647737	     23.97089966	     -3.39961810	     -0.33464956	     23.02875540	     23.02875540	      9.10237975	     -9.20696645	      2.12194408	     -7.74342793	      4.10717614	      2.76925467	     23.19121309	    -13.47746977	     -5.58486917	     69.85135407	     45.18511662	      0.00000000	      0.00000000	     -0.41534108	     -8.44825589	      0.12149298	     30.43894929	     45.24189307	      0.00000000	      0.00000000
     45.54800000	     -5.96182890	     -5.33210966	      3.29534200	      0.95861152	      0.92874226	      0.44321067	      9.03114640	     -1.40872949	    -12.73306897	     34.95995272	     34.95995272	     10.22906398	     -5.97491587	    -12.54494249	     23.02984167	     -3.61838056	     -0.49188176	     22.79819252	     22.79819252	      9.58973820	     -8.95621517	      1.94414190	     -8.16668560	      4.46944337	      2.62613641	     21.64317484	    -13.28204885	     -5.31163836	     68.92010875	     45.20055768	      0.00000000	      0.00000000	      0.73028501	     -8.76062909	      0.06793890	     30.99820235	     45.26966042	      0.00000000	      0.00000000
     45.56100000	     -6.27379677	     -4.97648136	      2.77989873	      0.95751550	      0.92844923	      0.44155954	     11.40471568	     -2.25916828	    -11.76057632	     39.02725993	     39.02725993	      8.92330635	     -8.00620725	    -12.81062066	     22.81711744	     -3.39890159	     -1.53916210	     22.71452451	     22.71452451	      9.85335017	     -8.34656752	      1.54720730	     -7.85099325	      4.02870214	      3.22794989	     19.96825871	    -13.78714553	     -4.98848857	     66.73396539	     45.25810529	      0.00000000	      0.00000000	      2.05605470	     -9.06309810	      0.01468755	     32.06553634	     45.30361688	      0.00000000	      0.00000000
